REM DIRINDEX 1\2,1\4,1\3\5,1\3\6
REM DIRNAME cjc035,folder01,folder02,folder03,folder04,folder05
TITLE ""
FILE "Track16.mp3" MP3
  TRACK 01 AUDIO
    TITLE "4:cjc035_0635"
    INDEX 01 00:00:00
  TRACK 02 AUDIO
    TITLE "5:cjc035_0636"
    INDEX 01 00:05:14
  TRACK 03 AUDIO
    TITLE "6:cjc035_0637"
    INDEX 01 00:06:59
  TRACK 04 AUDIO
    TITLE "5:cjc035_0638"
    INDEX 01 00:08:36
  TRACK 05 AUDIO
    TITLE "6:cjc035_0639"
    INDEX 01 00:10:14
  TRACK 06 AUDIO
    TITLE "5:cjc035_0640"
    INDEX 01 00:11:62
  TRACK 07 AUDIO
    TITLE "6:cjc035_0641"
    INDEX 01 00:13:35
  TRACK 08 AUDIO
    TITLE "5:cjc035_0642"
    INDEX 01 00:15:07
  TRACK 09 AUDIO
    TITLE "6:cjc035_0643"
    INDEX 01 00:16:59
  TRACK 10 AUDIO
    TITLE "5:cjc035_0644"
    INDEX 01 00:18:29
  TRACK 11 AUDIO
    TITLE "6:cjc035_0645"
    INDEX 01 00:20:08
  TRACK 12 AUDIO
    TITLE "5:cjc035_0646"
    INDEX 01 00:21:62
  TRACK 13 AUDIO
    TITLE "6:cjc035_0647"
    INDEX 01 00:23:44
  TRACK 14 AUDIO
    TITLE "5:cjc035_0648"
    INDEX 01 00:25:25
  TRACK 15 AUDIO
    TITLE "6:cjc035_0649"
    INDEX 01 00:27:08
  TRACK 16 AUDIO
    TITLE "5:cjc035_0650"
    INDEX 01 00:28:59
  TRACK 17 AUDIO
    TITLE "6:cjc035_0651"
    INDEX 01 00:30:40
  TRACK 18 AUDIO
    TITLE "5:cjc035_0652"
    INDEX 01 00:32:17
  TRACK 19 AUDIO
    TITLE "6:cjc035_0653"
    INDEX 01 00:33:66
  TRACK 20 AUDIO
    TITLE "5:cjc035_0654"
    INDEX 01 00:35:41
  TRACK 21 AUDIO
    TITLE "6:cjc035_0655"
    INDEX 01 00:37:10
  TRACK 22 AUDIO
    TITLE "5:cjc035_0656"
    INDEX 01 00:38:63
  TRACK 23 AUDIO
    TITLE "6:cjc035_0657"
    INDEX 01 00:40:44
  TRACK 24 AUDIO
    TITLE "5:cjc035_0658"
    INDEX 01 00:42:27
  TRACK 25 AUDIO
    TITLE "6:cjc035_0659"
    INDEX 01 00:44:01
  TRACK 26 AUDIO
    TITLE "5:cjc035_0660"
    INDEX 01 00:45:49
  TRACK 27 AUDIO
    TITLE "6:cjc035_0661"
    INDEX 01 00:47:32
  TRACK 28 AUDIO
    TITLE "5:cjc035_0662"
    INDEX 01 00:49:12
  TRACK 29 AUDIO
    TITLE "6:cjc035_0663"
    INDEX 01 00:50:74
  TRACK 30 AUDIO
    TITLE "5:cjc035_0664"
    INDEX 01 00:52:59
  TRACK 31 AUDIO
    TITLE "6:cjc035_0665"
    INDEX 01 00:54:40
  TRACK 32 AUDIO
    TITLE "5:cjc035_0666"
    INDEX 01 00:56:22
  TRACK 33 AUDIO
    TITLE "6:cjc035_0667"
    INDEX 01 00:57:70
  TRACK 34 AUDIO
    TITLE "5:cjc035_0668"
    INDEX 01 00:59:45
  TRACK 35 AUDIO
    TITLE "6:cjc035_0669"
    INDEX 01 01:01:27
  TRACK 36 AUDIO
    TITLE "5:cjc035_0670"
    INDEX 01 01:03:08
  TRACK 37 AUDIO
    TITLE "6:cjc035_0671"
    INDEX 01 01:04:60
  TRACK 38 AUDIO
    TITLE "5:cjc035_0672"
    INDEX 01 01:06:45
  TRACK 39 AUDIO
    TITLE "6:cjc035_0673"
    INDEX 01 01:08:33
  TRACK 40 AUDIO
    TITLE "5:cjc035_0674"
    INDEX 01 01:10:20
  TRACK 41 AUDIO
    TITLE "6:cjc035_0675"
    INDEX 01 01:11:70
  TRACK 42 AUDIO
    TITLE "5:cjc035_0676"
    INDEX 01 01:13:47
  TRACK 43 AUDIO
    TITLE "6:cjc035_0677"
    INDEX 01 01:15:21
  TRACK 44 AUDIO
    TITLE "5:cjc035_0678"
    INDEX 01 01:16:67
  TRACK 45 AUDIO
    TITLE "6:cjc035_0679"
    INDEX 01 01:18:35
  TRACK 46 AUDIO
    TITLE "5:cjc035_0680"
    INDEX 01 01:20:08
  TRACK 47 AUDIO
    TITLE "6:cjc035_0681"
    INDEX 01 01:21:57
  TRACK 48 AUDIO
    TITLE "5:cjc035_0682"
    INDEX 01 01:23:32
  TRACK 49 AUDIO
    TITLE "6:cjc035_0683"
    INDEX 01 01:25:09
  TRACK 50 AUDIO
    TITLE "5:cjc035_0684"
    INDEX 01 01:26:58
  TRACK 51 AUDIO
    TITLE "6:cjc035_0685"
    INDEX 01 01:28:41
  TRACK 52 AUDIO
    TITLE "5:cjc035_0686"
    INDEX 01 01:30:15
  TRACK 53 AUDIO
    TITLE "6:cjc035_0687"
    INDEX 01 01:31:67
  TRACK 54 AUDIO
    TITLE "5:cjc035_0688"
    INDEX 01 01:33:38
  TRACK 55 AUDIO
    TITLE "6:cjc035_0689"
    INDEX 01 01:35:24
  TRACK 56 AUDIO
    TITLE "5:cjc035_0690"
    INDEX 01 01:37:01
  TRACK 57 AUDIO
    TITLE "6:cjc035_0691"
    INDEX 01 01:38:61
  TRACK 58 AUDIO
    TITLE "5:cjc035_0692"
    INDEX 01 01:40:36
  TRACK 59 AUDIO
    TITLE "6:cjc035_0693"
    INDEX 01 01:42:26
  TRACK 60 AUDIO
    TITLE "5:cjc035_0694"
    INDEX 01 01:44:05
  TRACK 61 AUDIO
    TITLE "6:cjc035_0695"
    INDEX 01 01:45:57
  TRACK 62 AUDIO
    TITLE "5:cjc035_0696"
    INDEX 01 01:47:54
  TRACK 63 AUDIO
    TITLE "6:cjc035_0697"
    INDEX 01 01:49:35
  TRACK 64 AUDIO
    TITLE "5:cjc035_0698"
    INDEX 01 01:51:17
  TRACK 65 AUDIO
    TITLE "6:cjc035_0699"
    INDEX 01 01:52:73
  TRACK 66 AUDIO
    TITLE "5:cjc035_0700"
    INDEX 01 01:54:48
  TRACK 67 AUDIO
    TITLE "6:cjc035_0701"
    INDEX 01 01:56:32
  TRACK 68 AUDIO
    TITLE "5:cjc035_0702"
    INDEX 01 01:58:13
  TRACK 69 AUDIO
    TITLE "6:cjc035_0703"
    INDEX 01 02:00:06
  TRACK 70 AUDIO
    TITLE "0:"
    INDEX 01 02:01:58
